<svg xmlns="http://www.w3.org/2000/svg" width="11.172" height="22.117" viewBox="0 0 11.172 22.117">
  <g id="XMLID_834_" transform="translate(-76.703)">
    <path id="XMLID_835_" d="M77.06,11.78h2.424V21.76a.357.357,0,0,0,.357.357h4.111a.357.357,0,0,0,.357-.357V11.827H87.1a.357.357,0,0,0,.354-.316l.423-3.674a.357.357,0,0,0-.354-.4h-3.21v-2.3c0-.694.374-1.046,1.111-1.046h2.1a.357.357,0,0,0,.357-.357V.359A.357.357,0,0,0,87.519,0H84.626c-.02,0-.066,0-.132,0a5.543,5.543,0,0,0-3.625,1.366A3.8,3.8,0,0,0,79.6,4.745V7.439H77.06A.357.357,0,0,0,76.7,7.8v3.628A.357.357,0,0,0,77.06,11.78Z" fill="#1877f2"/>
  </g>
</svg>
