<svg xmlns="http://www.w3.org/2000/svg" width="21.647" height="22.117" viewBox="0 0 21.647 22.117">
  <g id="Google__G__Logo" transform="translate(26.754 -39.239)">
    <path id="Path_2632" data-name="Path 2632" d="M-4.165,51.331a12.812,12.812,0,0,0-.175-2.092H-14.754V53.4h5.962A5.134,5.134,0,0,1-11,56.694v2.765h3.557A10.812,10.812,0,0,0-4.165,51.331Z" transform="translate(-0.941 -0.784)" fill="#4285f4"/>
    <path id="Path_2633" data-name="Path 2633" d="M-15.594,62.477A10.534,10.534,0,0,0-8.286,59.8l-3.557-2.765A6.671,6.671,0,0,1-15.594,58.1a6.6,6.6,0,0,1-6.2-4.571h-3.668v2.848A11.042,11.042,0,0,0-15.594,62.477Z" transform="translate(-0.101 -1.121)" fill="#34a853"/>
    <path id="Path_2634" data-name="Path 2634" d="M-21.9,52.927a6.417,6.417,0,0,1-.35-2.11,6.667,6.667,0,0,1,.35-2.11V45.859h-3.668a10.93,10.93,0,0,0-1.189,4.958,10.93,10.93,0,0,0,1.189,4.958Z" transform="translate(0 -0.519)" fill="#fbbc05"/>
    <path id="Path_2635" data-name="Path 2635" d="M-15.594,43.616a6,6,0,0,1,4.239,1.659L-8.2,42.123a10.573,10.573,0,0,0-7.391-2.884,11.042,11.042,0,0,0-9.87,6.1l3.668,2.848A6.6,6.6,0,0,1-15.594,43.616Z" transform="translate(-0.101)" fill="#ea4335"/>
  </g>
</svg>
